<svg width="1282" height="642" viewBox="0 0 1282 642" fill="none" xmlns="http://www.w3.org/2000/svg">
<rect x="1138.78" y="513" width="142.222" height="128" stroke="#000933" stroke-opacity="0.16"/>
<rect x="996.556" y="513" width="142.222" height="128" stroke="#000933" stroke-opacity="0.16"/>
<rect x="854.333" y="513" width="142.222" height="128" stroke="#000933" stroke-opacity="0.16"/>
<rect x="712.111" y="513" width="142.222" height="128" stroke="#000933" stroke-opacity="0.16"/>
<rect x="569.889" y="513" width="142.222" height="128" stroke="#000933" stroke-opacity="0.16"/>
<rect x="427.667" y="513" width="142.222" height="128" stroke="#000933" stroke-opacity="0.16"/>
<rect x="285.444" y="513" width="142.222" height="128" stroke="#000933" stroke-opacity="0.16"/>
<rect x="143.222" y="513" width="142.222" height="128" stroke="#000933" stroke-opacity="0.16"/>
<rect x="1" y="513" width="142.222" height="128" stroke="#000933" stroke-opacity="0.16"/>
<rect x="1138.78" y="385" width="142.222" height="128" stroke="#000933" stroke-opacity="0.16"/>
<rect x="996.556" y="385" width="142.222" height="128" stroke="#000933" stroke-opacity="0.16"/>
<rect x="854.333" y="385" width="142.222" height="128" stroke="#000933" stroke-opacity="0.16"/>
<rect x="712.111" y="385" width="142.222" height="128" stroke="#000933" stroke-opacity="0.16"/>
<rect x="569.889" y="385" width="142.222" height="128" stroke="#000933" stroke-opacity="0.16"/>
<rect x="427.667" y="385" width="142.222" height="128" stroke="#000933" stroke-opacity="0.16"/>
<rect x="285.444" y="385" width="142.222" height="128" stroke="#000933" stroke-opacity="0.16"/>
<rect x="143.222" y="385" width="142.222" height="128" stroke="#000933" stroke-opacity="0.16"/>
<rect x="1" y="385" width="142.222" height="128" stroke="#000933" stroke-opacity="0.16"/>
<rect x="1138.78" y="257" width="142.222" height="128" stroke="#000933" stroke-opacity="0.16"/>
<rect x="996.556" y="257" width="142.222" height="128" stroke="#000933" stroke-opacity="0.16"/>
<rect x="854.333" y="257" width="142.222" height="128" stroke="#000933" stroke-opacity="0.16"/>
<rect x="712.111" y="257" width="142.222" height="128" stroke="#000933" stroke-opacity="0.16"/>
<rect x="569.889" y="257" width="142.222" height="128" stroke="#000933" stroke-opacity="0.16"/>
<rect x="427.667" y="257" width="142.222" height="128" stroke="#000933" stroke-opacity="0.16"/>
<rect x="285.444" y="257" width="142.222" height="128" stroke="#000933" stroke-opacity="0.16"/>
<rect x="143.222" y="257" width="142.222" height="128" stroke="#000933" stroke-opacity="0.16"/>
<rect x="1" y="257" width="142.222" height="128" stroke="#000933" stroke-opacity="0.16"/>
<rect x="1138.78" y="129" width="142.222" height="128" stroke="#000933" stroke-opacity="0.16"/>
<rect x="996.556" y="129" width="142.222" height="128" stroke="#000933" stroke-opacity="0.16"/>
<rect x="854.333" y="129" width="142.222" height="128" stroke="#000933" stroke-opacity="0.16"/>
<rect x="712.111" y="129" width="142.222" height="128" stroke="#000933" stroke-opacity="0.16"/>
<rect x="569.889" y="129" width="142.222" height="128" stroke="#000933" stroke-opacity="0.16"/>
<rect x="427.667" y="129" width="142.222" height="128" stroke="#000933" stroke-opacity="0.16"/>
<rect x="285.444" y="129" width="142.222" height="128" stroke="#000933" stroke-opacity="0.16"/>
<rect x="143.222" y="129" width="142.222" height="128" stroke="#000933" stroke-opacity="0.16"/>
<rect x="1" y="129" width="142.222" height="128" stroke="#000933" stroke-opacity="0.16"/>
<rect x="1" y="1" width="142.222" height="128" stroke="#000933" stroke-opacity="0.16"/>
<rect x="143.222" y="1" width="142.222" height="128" stroke="#000933" stroke-opacity="0.16"/>
<rect x="285.444" y="1" width="142.222" height="128" stroke="#000933" stroke-opacity="0.16"/>
<rect x="427.667" y="1" width="142.222" height="128" stroke="#000933" stroke-opacity="0.16"/>
<rect x="569.889" y="1" width="142.222" height="128" stroke="#000933" stroke-opacity="0.16"/>
<rect x="712.111" y="1" width="142.222" height="128" stroke="#000933" stroke-opacity="0.16"/>
<rect x="854.333" y="1" width="142.222" height="128" stroke="#000933" stroke-opacity="0.16"/>
<rect x="996.556" y="1" width="142.222" height="128" stroke="#000933" stroke-opacity="0.16"/>
<rect x="1138.78" y="1" width="142.222" height="128" stroke="#000933" stroke-opacity="0.16"/>
<rect x="1107" y="481" width="64" height="64" rx="32" fill="#0030FF"/>
<rect x="985" y="501" width="24" height="24" rx="12" fill="#000933"/>
<rect x="847" y="505" width="16" height="16" rx="8" fill="#000933"/>
<rect x="700" y="501" width="24" height="24" rx="12" fill="#0030FF"/>
<rect x="558" y="501" width="24" height="24" rx="12" fill="#0030FF"/>
<rect x="273" y="501" width="24" height="24" rx="12" fill="#000933"/>
<rect x="111" y="481" width="64" height="64" rx="32" fill="#0030FF"/>
<rect x="1131" y="377" width="16" height="16" rx="8" fill="#0030FF"/>
<rect x="973" y="361" width="48" height="48" rx="24" fill="#000933"/>
<rect x="261" y="361" width="48" height="48" rx="24" fill="#000933"/>
<rect x="131" y="373" width="24" height="24" rx="12" fill="#000933"/>
<rect x="1119" y="237" width="40" height="40" rx="20" fill="#0030FF"/>
<rect x="985" y="245" width="24" height="24" rx="12" fill="#0030FF"/>
<rect x="550" y="237" width="40" height="40" rx="20" fill="#0030FF"/>
<rect x="253" y="225" width="64" height="64" rx="32" fill="#0030FF"/>
<rect x="135" y="249" width="16" height="16" rx="8" fill="#000933"/>
<rect x="1127" y="117" width="24" height="24" rx="12" fill="#0030FF"/>
<rect x="977" y="109" width="40" height="40" rx="20" fill="#0030FF"/>
<rect x="420" y="121" width="16" height="16" rx="8" fill="#0030FF"/>
<rect x="253" y="97" width="64" height="64" rx="32" fill="#0030FF"/>
<rect x="131" y="117" width="24" height="24" rx="12" fill="#000933"/>
<rect x="385" y="65" width="512" height="512" rx="256" fill="#0030FF"/>
<path d="M501.219 347V295.883H507.898V340.672H530.223L527.34 347H501.219ZM558.559 318.312C556.496 316.602 554.059 315.746 551.246 315.746C548.434 315.746 545.902 316.602 543.652 318.312C541.402 320 539.996 322.285 539.434 325.168H562.285C561.863 322.285 560.621 320 558.559 318.312ZM551.387 347.703C547.754 347.703 544.508 346.883 541.648 345.242C538.789 343.602 536.586 341.363 535.039 338.527C533.516 335.691 532.754 332.516 532.754 329C532.754 323.703 534.512 319.262 538.027 315.676C541.566 312.09 546.043 310.297 551.457 310.297C554.645 310.297 557.516 310.988 560.07 312.371C562.625 313.754 564.676 315.84 566.223 318.629C567.793 321.395 568.59 324.641 568.613 328.367C568.613 329.07 568.59 329.691 568.543 330.23H539.012C539.129 333.652 540.348 336.477 542.668 338.703C544.988 340.93 547.918 342.043 551.457 342.043C556.168 342.043 560.352 340.332 564.008 336.91L566.082 342.324C564.395 343.941 562.262 345.242 559.684 346.227C557.105 347.211 554.34 347.703 551.387 347.703ZM590.023 347.352C586.812 347.352 584.281 346.473 582.43 344.715C580.578 342.934 579.652 340.285 579.652 336.77V316.695H572.094V311H579.652V300.98H585.84V311H596.281V316.695H585.84V335.469C585.84 337.672 586.355 339.254 587.387 340.215C588.418 341.176 590.012 341.656 592.168 341.656C593.527 341.656 595.133 341.492 596.984 341.164L594.699 346.93C593.199 347.211 591.641 347.352 590.023 347.352ZM602.68 311.703L603.77 295.883H613.613C611.809 302.164 608.164 307.438 602.68 311.703ZM626.727 347.703C621.922 347.703 617.668 346.191 613.965 343.168L616.637 337.789C619.824 340.766 623.188 342.254 626.727 342.254C628.625 342.254 630.195 341.832 631.438 340.988C632.703 340.121 633.336 338.938 633.336 337.438C633.336 336.008 632.879 334.883 631.965 334.062C631.051 333.242 629.398 332.469 627.008 331.742L623.457 330.652C617.457 328.824 614.457 325.438 614.457 320.492C614.457 317.375 615.641 314.902 618.008 313.074C620.398 311.223 623.398 310.297 627.008 310.297C631.508 310.297 635.176 311.469 638.012 313.812L635.797 318.91C634.508 317.879 633.102 317.082 631.578 316.52C630.055 315.957 628.578 315.676 627.148 315.676C625.297 315.676 623.75 316.098 622.508 316.941C621.289 317.762 620.68 318.852 620.68 320.211C620.68 321.312 621.055 322.262 621.805 323.059C622.555 323.832 623.879 324.512 625.777 325.098L629.75 326.258C633.008 327.266 635.445 328.602 637.062 330.266C638.703 331.93 639.523 334.145 639.523 336.91C639.523 340.238 638.363 342.875 636.043 344.82C633.746 346.742 630.641 347.703 626.727 347.703ZM677.633 347.352C674.422 347.352 671.891 346.473 670.039 344.715C668.188 342.934 667.262 340.285 667.262 336.77V316.695H659.703V311H667.262V300.98H673.449V311H683.891V316.695H673.449V335.469C673.449 337.672 673.965 339.254 674.996 340.215C676.027 341.176 677.621 341.656 679.777 341.656C681.137 341.656 682.742 341.492 684.594 341.164L682.309 346.93C680.809 347.211 679.25 347.352 677.633 347.352ZM706.145 347.703C702.84 347.703 699.828 346.871 697.109 345.207C694.414 343.52 692.305 341.246 690.781 338.387C689.258 335.527 688.496 332.398 688.496 329C688.496 325.602 689.258 322.473 690.781 319.613C692.305 316.754 694.414 314.492 697.109 312.828C699.828 311.141 702.84 310.297 706.145 310.297C708.746 310.297 711.195 310.895 713.492 312.09C715.789 313.262 717.559 314.75 718.801 316.555V311H724.988V347H718.801V341.445C717.559 343.25 715.789 344.75 713.492 345.945C711.195 347.117 708.746 347.703 706.145 347.703ZM698.199 338.281C700.52 340.789 703.473 342.043 707.059 342.043C710.645 342.043 713.586 340.801 715.883 338.316C718.18 335.809 719.328 332.703 719.328 329C719.328 325.297 718.18 322.203 715.883 319.719C713.586 317.211 710.645 315.957 707.059 315.957C703.473 315.957 700.52 317.211 698.199 319.719C695.902 322.227 694.754 325.32 694.754 329C694.754 332.68 695.902 335.773 698.199 338.281ZM736.66 347V293H742.848V347H736.66ZM754.59 347V293H760.777V325.027L776.457 311H784.684L766.965 326.926L788.656 347H780.289L760.777 329V347H754.59Z" fill="white"/>
</svg>
