<svg width="142" height="24" viewBox="0 0 142 24" fill="none" xmlns="http://www.w3.org/2000/svg">
<path d="M12 2.4C6.69808 2.4 2.4 6.69808 2.4 12H0C0 5.3726 5.3726 0 12 0C18.6274 0 24 5.3726 24 12C24 18.6274 18.6274 24 12 24V21.6C17.3019 21.6 21.6 17.3019 21.6 12C21.6 6.69808 17.3019 2.4 12 2.4Z" fill="#0030FF"/>
<path d="M12 7.19999C9.34909 7.19999 7.20005 9.34903 7.20005 12C7.20005 14.6509 9.34909 16.8 12 16.8V19.2C8.02361 19.2 4.80005 15.9764 4.80005 12C4.80005 8.02355 8.02361 4.79999 12 4.79999V7.19999Z" fill="#0030FF"/>
<path d="M46.1537 6.68714C46.4613 6.99499 46.8102 7.13842 47.2202 7.13842C47.6511 7.13842 47.9998 6.99499 48.287 6.68714C48.5743 6.40009 48.7177 6.05124 48.7177 5.62056C48.7177 5.21029 48.5743 4.86162 48.287 4.55397C47.9998 4.26673 47.6511 4.12311 47.2202 4.12311C46.8102 4.12311 46.4613 4.26673 46.1537 4.55397C45.846 4.86162 45.7024 5.21029 45.7024 5.62056C45.7024 6.05124 45.846 6.40009 46.1537 6.68714Z" fill="#000933"/>
<path d="M46.0921 9.37438V19.6307H48.3484V9.37438H46.0921Z" fill="#000933"/>
<path d="M31.5076 17.7026C32.9435 19.1588 34.7486 19.8769 36.9229 19.8769C38.646 19.8769 40.1639 19.3845 41.4563 18.3999C42.7485 17.4359 43.569 16.2051 43.9383 14.7487H41.3537C41.046 15.5896 40.4717 16.2665 39.6716 16.7794C38.8716 17.2923 37.9485 17.5589 36.9229 17.5589C35.4255 17.5589 34.1743 17.0667 33.2101 16.0615C32.2459 15.0563 31.7537 13.8255 31.7537 12.3487C31.7537 10.8718 32.2459 9.64102 33.2101 8.63586C34.1743 7.63069 35.4255 7.13841 36.9229 7.13841C37.9485 7.13841 38.8716 7.40506 39.6716 7.91794C40.4717 8.43082 41.046 9.10773 41.3537 9.94868H43.9383C43.569 8.49224 42.7485 7.26163 41.4563 6.27687C40.1639 5.3129 38.646 4.82062 36.9229 4.82062C34.7486 4.82062 32.9435 5.53853 31.5076 6.97438C30.0512 8.43082 29.3333 10.2153 29.3333 12.3487C29.3333 14.482 30.0512 16.2665 31.5076 17.7026Z" fill="#000933"/>
<path d="M51.3843 19.6307V9.3744H53.6407V11.2001C53.8253 10.6256 54.1946 10.1539 54.7075 9.80508C55.2203 9.45641 55.7536 9.27179 56.3485 9.27179C56.6972 9.27179 57.0049 9.29239 57.2305 9.3538V11.6718C56.9022 11.5488 56.5332 11.4872 56.1023 11.4872C55.4254 11.4872 54.8305 11.7538 54.3588 12.3077C53.8869 12.8616 53.6407 13.6411 53.6407 14.6257V19.6307H51.3843Z" fill="#000933"/>
<path d="M59.6101 18.2769C60.6151 19.3231 61.9075 19.8358 63.446 19.8358C64.7792 19.8358 65.9074 19.4667 66.8511 18.7282C67.7741 17.9896 68.3894 17.0461 68.6562 15.8769H66.2766C66.0716 16.4512 65.7227 16.9025 65.2305 17.2513C64.7178 17.6 64.1229 17.7846 63.446 17.7846C62.5434 17.7846 61.8049 17.4769 61.2306 16.8614C60.6563 16.2461 60.369 15.4666 60.369 14.5025C60.369 13.5385 60.6563 12.759 61.2306 12.1437C61.8049 11.5282 62.5434 11.2205 63.446 11.2205C64.1229 11.2205 64.7178 11.3845 65.2305 11.7334C65.7227 12.082 66.0716 12.5539 66.2766 13.1282H68.6562C68.3894 11.959 67.7741 11.0155 66.8511 10.277C65.9074 9.53843 64.7792 9.16917 63.446 9.16917C61.9075 9.16917 60.6151 9.68205 59.6101 10.7076C58.5844 11.7538 58.0717 13.0052 58.0717 14.5025C58.0717 15.9999 58.5844 17.2513 59.6101 18.2769Z" fill="#000933"/>
<path d="M74.4612 19.8357C73.292 19.8357 72.3484 19.4461 71.6715 18.6461C70.9946 17.8666 70.6459 16.8204 70.6459 15.5076V9.37439H72.9023V15.1384C72.9023 15.9589 73.0869 16.5948 73.4356 17.0667C73.7842 17.5384 74.2971 17.7846 74.9534 17.7846C75.7126 17.7846 76.3279 17.4974 76.7791 16.9025C77.2304 16.3282 77.4561 15.5076 77.4561 14.4204V9.37439H79.7124V19.6307H77.4561V18.2359C76.8612 19.3025 75.856 19.8357 74.4612 19.8357Z" fill="#000933"/>
<path d="M95.8149 13.8667V19.6307H98.0713V13.4975C98.0713 12.1641 97.7432 11.1179 97.0867 10.3386C96.4304 9.55903 95.5279 9.16917 94.3791 9.16917C93.6611 9.16917 93.0252 9.3538 92.4303 9.70265C91.8354 10.0513 91.3842 10.5642 91.0971 11.2001C90.5226 9.84609 89.4561 9.16917 87.9176 9.16917C86.6048 9.16917 85.6406 9.70265 85.0047 10.7692V9.37439H82.7483V19.6307H85.0047V14.5847C85.0047 13.5179 85.2305 12.6974 85.6818 12.1026C86.1125 11.5078 86.7074 11.2205 87.4663 11.2205C88.0612 11.2205 88.5329 11.4461 88.8407 11.918C89.1484 12.3897 89.292 13.0256 89.292 13.8667V19.6307H91.5484V14.4204C91.5688 13.4155 91.815 12.6153 92.2457 12.0614C92.6766 11.5077 93.2715 11.2205 93.9894 11.2205C94.5843 11.2205 95.056 11.4461 95.3636 11.918C95.6715 12.3897 95.8149 13.0256 95.8149 13.8667Z" fill="#000933"/>
<path d="M103.897 19.6307L99.2613 9.37439H101.764L104.882 16.5744L108.02 9.37439H110.543L105.887 19.6307H103.897Z" fill="#000933"/>
<path fill-rule="evenodd" clip-rule="evenodd" d="M120.171 18.3179C119.186 19.3231 117.935 19.8358 116.396 19.8358C115.145 19.8358 114.058 19.5077 113.176 18.8718C112.294 18.2359 111.678 17.4153 111.371 16.4102H113.73C114.201 17.3743 115.063 17.846 116.314 17.846C117.196 17.846 117.935 17.5794 118.509 17.0461C119.083 16.5128 119.391 15.8565 119.412 15.0563H111.248C111.145 13.3333 111.576 11.918 112.54 10.8102C113.504 9.72306 114.796 9.16917 116.376 9.16917C117.955 9.16917 119.227 9.66165 120.191 10.6666C121.155 11.6718 121.648 12.964 121.648 14.5025C121.648 16.0409 121.155 17.3127 120.171 18.3179ZM118.325 11.6718C117.812 11.2615 117.176 11.0565 116.437 11.0565C115.76 11.0565 115.186 11.2615 114.673 11.6514C114.16 12.0615 113.832 12.6564 113.668 13.4565H119.35C119.207 12.6974 118.858 12.1027 118.325 11.6718Z" fill="#000933"/>
<path d="M123.616 19.6307V9.37439H125.873V10.7692C126.509 9.70265 127.555 9.16917 128.991 9.16917C130.18 9.16917 131.124 9.55903 131.842 10.3386C132.56 11.1179 132.909 12.1641 132.909 13.4565V19.6307H130.652V13.8255C130.652 13.0052 130.468 12.3693 130.078 11.8974C129.688 11.4461 129.175 11.2205 128.519 11.2205C127.739 11.2205 127.103 11.5078 126.611 12.1026C126.119 12.6974 125.873 13.5179 125.873 14.5847V19.6307H123.616Z" fill="#000933"/>
<path d="M137.366 18.8512C138.002 19.4461 138.843 19.7333 139.889 19.7333C140.525 19.7333 141.079 19.6513 141.571 19.5077V17.4974C141.264 17.641 140.853 17.7026 140.361 17.7026C139.766 17.7026 139.315 17.559 139.048 17.2923C138.781 17.0257 138.638 16.5948 138.638 15.9589V11.3845H141.571V9.37441H138.638V6.52313H136.382V9.37441H134.248V11.3845H136.382V16.3282C136.382 17.436 136.71 18.2769 137.366 18.8512Z" fill="#000933"/>
</svg>
