<svg width="113" height="16" viewBox="0 0 113 16" fill="none" xmlns="http://www.w3.org/2000/svg">
<path d="M17.1537 2.68714C17.4613 2.99499 17.8102 3.13842 18.2202 3.13842C18.6511 3.13842 18.9998 2.99499 19.287 2.68714C19.5743 2.40009 19.7177 2.05124 19.7177 1.62056C19.7177 1.21029 19.5743 0.861624 19.287 0.55397C18.9998 0.266726 18.6511 0.123108 18.2202 0.123108C17.8102 0.123108 17.4613 0.266726 17.1537 0.55397C16.846 0.861624 16.7024 1.21029 16.7024 1.62056C16.7024 2.05124 16.846 2.40009 17.1537 2.68714Z" fill="#000933"/>
<path d="M17.0921 5.37438V15.6307H19.3484V5.37438H17.0921Z" fill="#000933"/>
<path d="M2.50761 13.7026C3.94345 15.1588 5.74856 15.8769 7.92292 15.8769C9.64601 15.8769 11.1639 15.3845 12.4563 14.3999C13.7485 13.4359 14.569 12.2051 14.9383 10.7487H12.3537C12.046 11.5896 11.4717 12.2665 10.6716 12.7794C9.87164 13.2923 8.94849 13.5589 7.92292 13.5589C6.42547 13.5589 5.17426 13.0667 4.2101 12.0615C3.24594 11.0563 2.75366 9.82553 2.75366 8.34868C2.75366 6.87183 3.24594 5.64102 4.2101 4.63586C5.17426 3.63069 6.42547 3.13841 7.92292 3.13841C8.94849 3.13841 9.87164 3.40506 10.6716 3.91794C11.4717 4.43082 12.046 5.10773 12.3537 5.94868H14.9383C14.569 4.49224 13.7485 3.26163 12.4563 2.27687C11.1639 1.3129 9.64601 0.820618 7.92292 0.820618C5.74856 0.820618 3.94345 1.53853 2.50761 2.97438C1.05117 4.43082 0.333252 6.21532 0.333252 8.34868C0.333252 10.482 1.05117 12.2665 2.50761 13.7026Z" fill="#000933"/>
<path d="M22.3843 15.6307V5.3744H24.6407V7.20011C24.8253 6.62562 25.1946 6.15393 25.7075 5.80508C26.2203 5.45641 26.7536 5.27179 27.3485 5.27179C27.6972 5.27179 28.0049 5.29239 28.2305 5.3538V7.67179C27.9022 7.54877 27.5332 7.48716 27.1023 7.48716C26.4254 7.48716 25.8305 7.7538 25.3588 8.30769C24.8869 8.86158 24.6407 9.64111 24.6407 10.6257V15.6307H22.3843Z" fill="#000933"/>
<path d="M30.6101 14.2769C31.6151 15.3231 32.9075 15.8358 34.446 15.8358C35.7792 15.8358 36.9074 15.4667 37.8511 14.7282C38.7741 13.9896 39.3894 13.0461 39.6562 11.8769H37.2766C37.0716 12.4512 36.7227 12.9025 36.2305 13.2513C35.7178 13.6 35.1229 13.7846 34.446 13.7846C33.5434 13.7846 32.8049 13.4769 32.2306 12.8614C31.6563 12.2461 31.369 11.4666 31.369 10.5025C31.369 9.5385 31.6563 8.75896 32.2306 8.14366C32.8049 7.52816 33.5434 7.2205 34.446 7.2205C35.1229 7.2205 35.7178 7.38454 36.2305 7.73339C36.7227 8.08205 37.0716 8.55393 37.2766 9.12822H39.6562C39.3894 7.95903 38.7741 7.01547 37.8511 6.27695C36.9074 5.53843 35.7792 5.16917 34.446 5.16917C32.9075 5.16917 31.6151 5.68205 30.6101 6.70763C29.5844 7.7538 29.0717 9.00521 29.0717 10.5025C29.0717 11.9999 29.5844 13.2513 30.6101 14.2769Z" fill="#000933"/>
<path d="M45.4612 15.8357C44.292 15.8357 43.3484 15.4461 42.6715 14.6461C41.9946 13.8666 41.6459 12.8204 41.6459 11.5076V5.37439H43.9023V11.1384C43.9023 11.9589 44.0869 12.5948 44.4356 13.0667C44.7842 13.5384 45.2971 13.7846 45.9534 13.7846C46.7126 13.7846 47.3279 13.4974 47.7791 12.9025C48.2304 12.3282 48.4561 11.5076 48.4561 10.4204V5.37439H50.7124V15.6307H48.4561V14.2359C47.8612 15.3025 46.856 15.8357 45.4612 15.8357Z" fill="#000933"/>
<path d="M66.8149 9.86675V15.6307H69.0713V9.49749C69.0713 8.16407 68.7432 7.11789 68.0867 6.33855C67.4304 5.55903 66.5279 5.16917 65.3791 5.16917C64.6611 5.16917 64.0252 5.3538 63.4303 5.70265C62.8354 6.05131 62.3842 6.5642 62.0971 7.2001C61.5226 5.84609 60.4561 5.16917 58.9176 5.16917C57.6048 5.16917 56.6406 5.70265 56.0047 6.76923V5.37439H53.7483V15.6307H56.0047V10.5847C56.0047 9.51789 56.2305 8.69736 56.6818 8.10265C57.1125 7.50775 57.7074 7.2205 58.4663 7.2205C59.0612 7.2205 59.5329 7.44615 59.8407 7.91802C60.1484 8.3897 60.292 9.02561 60.292 9.86675V15.6307H62.5484V10.4204C62.5688 9.41547 62.815 8.61534 63.2457 8.06145C63.6766 7.50775 64.2715 7.2205 64.9894 7.2205C65.5843 7.2205 66.056 7.44615 66.3636 7.91802C66.6715 8.3897 66.8149 9.02561 66.8149 9.86675Z" fill="#000933"/>
<path d="M74.8972 15.6307L70.2613 5.37439H72.7639L75.8818 12.5744L79.0201 5.37439H81.5434L76.887 15.6307H74.8972Z" fill="#000933"/>
<path fill-rule="evenodd" clip-rule="evenodd" d="M91.1706 14.3179C90.1861 15.3231 88.9348 15.8358 87.3964 15.8358C86.1452 15.8358 85.058 15.5077 84.1758 14.8718C83.2939 14.2359 82.6784 13.4153 82.3707 12.4102H84.7297C85.2014 13.3743 86.063 13.846 87.3144 13.846C88.1963 13.846 88.9348 13.5794 89.5091 13.0461C90.0834 12.5128 90.3913 11.8565 90.4117 11.0563H82.2477C82.1451 9.33326 82.576 7.91802 83.5399 6.81024C84.5041 5.72306 85.7963 5.16917 87.3758 5.16917C88.9553 5.16917 90.2271 5.66165 91.1912 6.66662C92.1554 7.67179 92.6477 8.96401 92.6477 10.5025C92.6477 12.0409 92.1554 13.3127 91.1706 14.3179ZM89.3245 7.67179C88.8118 7.26152 88.1759 7.05648 87.4374 7.05648C86.7605 7.05648 86.1862 7.26152 85.6733 7.65138C85.1604 8.06145 84.8324 8.65635 84.6681 9.45648H90.3503C90.2066 8.69736 89.8578 8.10265 89.3245 7.67179Z" fill="#000933"/>
<path d="M94.6162 15.6307V5.37439H96.8726V6.76923C97.5085 5.70265 98.5547 5.16917 99.9907 5.16917C101.18 5.16917 102.124 5.55903 102.842 6.33855C103.56 7.11789 103.909 8.16407 103.909 9.45648V15.6307H101.652V9.82555C101.652 9.0052 101.468 8.3693 101.078 7.89742C100.688 7.44615 100.175 7.2205 99.5188 7.2205C98.7393 7.2205 98.1034 7.50775 97.6111 8.10265C97.1188 8.69736 96.8726 9.51789 96.8726 10.5847V15.6307H94.6162Z" fill="#000933"/>
<path d="M108.366 14.8512C109.002 15.4461 109.843 15.7333 110.889 15.7333C111.525 15.7333 112.079 15.6513 112.571 15.5077V13.4974C112.264 13.641 111.853 13.7026 111.361 13.7026C110.766 13.7026 110.315 13.559 110.048 13.2923C109.781 13.0257 109.638 12.5948 109.638 11.9589V7.38455H112.571V5.37441H109.638V2.52313H107.382V5.37441H105.248V7.38455H107.382V12.3282C107.382 13.436 107.71 14.2769 108.366 14.8512Z" fill="#000933"/>
</svg>
